<?xml version="1.0" encoding="utf-8"?>
<!-- Generator: Adobe Illustrator 15.0.2, SVG Export Plug-In . SVG Version: 6.00 Build 0)  -->
<!DOCTYPE svg PUBLIC "-//W3C//DTD SVG 1.1//EN" "http://www.w3.org/Graphics/SVG/1.1/DTD/svg11.dtd">
<svg version="1.1" id="Calque_1" xmlns="http://www.w3.org/2000/svg" xmlns:xlink="http://www.w3.org/1999/xlink" x="0px" y="0px"
	 width="36px" height="396px" viewBox="0 0 36 396" enable-background="new 0 0 36 396" xml:space="preserve">
<g>
	<rect y="0" fill="#FFFFFF" fill-opacity="0" width="36" height="396"/>
	<rect y="0" fill="#607D8B" fill-opacity="0" width="36" height="144"/>
	<g>
		<path fill="#03A9F4" d="M28.261,70H8.572c-0.767,0-1.496-0.152-2.17-0.446c-0.666-0.287-1.263-0.695-1.765-1.208
			c-0.504-0.513-0.903-1.117-1.194-1.8c-0.294-0.688-0.441-1.424-0.441-2.198c0-0.762,0.147-1.494,0.441-2.177
			c0.292-0.676,0.698-1.276,1.208-1.78c0.505-0.507,1.105-0.915,1.781-1.21c0.623-0.269,1.287-0.425,1.984-0.459
			c0.471-0.498,1.016-0.896,1.624-1.188c0.579-0.279,1.205-0.44,1.856-0.482c0.154-0.587,0.388-1.15,0.699-1.668
			c0.377-0.629,0.848-1.182,1.395-1.639c0.553-0.458,1.182-0.823,1.871-1.083c0.691-0.262,1.436-0.394,2.206-0.394
			c1.042,0,2.021,0.247,2.917,0.731c0.773,0.426,1.447,0.991,1.996,1.677c0.211-0.055,0.431-0.102,0.637-0.144
			c0.333-0.068,0.682-0.101,1.031-0.101c0.844,0,1.646,0.164,2.4,0.493c0.741,0.324,1.403,0.771,1.961,1.333
			c0.557,0.559,1,1.219,1.319,1.962c0.304,0.708,0.468,1.479,0.479,2.285c0.658,0.441,1.174,1.017,1.555,1.715
			c0.426,0.774,0.637,1.63,0.637,2.551c0,0.672-0.121,1.316-0.361,1.918c-0.244,0.599-0.574,1.133-0.985,1.601
			c-0.416,0.47-0.918,0.858-1.5,1.152c-0.578,0.293-1.203,0.479-1.865,0.55L28.261,70z"/>
	</g>
	<g>
		<path fill="#03A9F4" d="M28.261,106H8.572c-0.767,0-1.496-0.148-2.17-0.441c-0.666-0.293-1.263-0.701-1.765-1.213
			c-0.504-0.514-0.903-1.117-1.194-1.799c-0.294-0.685-0.441-1.426-0.441-2.199c0-0.762,0.147-1.494,0.441-2.174
			c0.292-0.676,0.698-1.275,1.208-1.783c0.505-0.504,1.105-0.91,1.781-1.207c0.623-0.271,1.287-0.424,1.984-0.463
			c0.471-0.496,1.016-0.896,1.624-1.188c0.579-0.279,1.205-0.441,1.856-0.48c0.154-0.588,0.388-1.146,0.699-1.668
			c0.377-0.631,0.848-1.178,1.395-1.641c0.553-0.459,1.182-0.822,1.871-1.078c0.691-0.263,1.436-0.394,2.206-0.394
			c1.042,0,2.021,0.246,2.917,0.73c0.773,0.426,1.447,0.985,1.996,1.674c0.211-0.055,0.431-0.104,0.637-0.143
			c0.333-0.064,0.682-0.099,1.031-0.099c0.844,0,1.646,0.164,2.4,0.488c0.741,0.324,1.403,0.774,1.961,1.334
			c0.557,0.561,1,1.219,1.319,1.963c0.304,0.713,0.468,1.479,0.479,2.285c0.658,0.44,1.174,1.021,1.555,1.715
			c0.426,0.775,0.637,1.635,0.637,2.551c0,0.672-0.121,1.316-0.361,1.918c-0.244,0.597-0.574,1.138-0.985,1.605
			c-0.416,0.469-0.918,0.854-1.5,1.147c-0.578,0.293-1.203,0.479-1.865,0.554L28.261,106z"/>
	</g>
	<g>
		<path fill="#03A9F4" d="M28.261,142H8.572c-0.767,0-1.496-0.148-2.17-0.441c-0.666-0.293-1.263-0.701-1.765-1.209
			c-0.504-0.518-0.903-1.115-1.194-1.803c-0.294-0.685-0.441-1.422-0.441-2.199c0-0.762,0.147-1.494,0.441-2.174
			c0.292-0.676,0.698-1.279,1.208-1.783c0.505-0.504,1.105-0.91,1.781-1.207c0.623-0.268,1.287-0.428,1.984-0.463
			c0.471-0.496,1.016-0.891,1.624-1.184c0.579-0.283,1.205-0.439,1.856-0.484c0.154-0.588,0.388-1.146,0.699-1.668
			c0.377-0.625,0.848-1.178,1.395-1.641c0.553-0.453,1.182-0.822,1.871-1.082c0.691-0.255,1.436-0.39,2.206-0.39
			c1.042,0,2.021,0.242,2.917,0.73c0.773,0.43,1.447,0.992,1.996,1.674c0.211-0.055,0.431-0.098,0.637-0.143
			c0.333-0.064,0.682-0.099,1.031-0.099c0.844,0,1.646,0.168,2.4,0.494c0.741,0.324,1.403,0.77,1.961,1.328
			c0.557,0.561,1,1.223,1.319,1.963c0.304,0.709,0.468,1.482,0.479,2.285c0.658,0.44,1.174,1.021,1.555,1.719
			c0.426,0.771,0.637,1.627,0.637,2.551c0,0.672-0.121,1.316-0.361,1.914c-0.244,0.603-0.574,1.138-0.985,1.605
			c-0.416,0.469-0.918,0.854-1.5,1.147c-0.578,0.293-1.203,0.484-1.865,0.554L28.261,142z"/>
	</g>
	<g>
		<path fill="#03A9F4" d="M28.261,178H8.572c-0.767,0-1.496-0.148-2.17-0.441c-0.666-0.293-1.263-0.701-1.765-1.209
			c-0.504-0.519-0.903-1.115-1.194-1.795c-0.294-0.691-0.441-1.431-0.441-2.207c0-0.762,0.147-1.494,0.441-2.174
			c0.292-0.677,0.698-1.271,1.208-1.783c0.505-0.504,1.105-0.91,1.781-1.207c0.623-0.269,1.287-0.42,1.984-0.463
			c0.471-0.496,1.016-0.892,1.624-1.185c0.579-0.282,1.205-0.438,1.856-0.483c0.154-0.588,0.388-1.146,0.699-1.66
			c0.377-0.633,0.848-1.187,1.395-1.641c0.553-0.462,1.182-0.83,1.871-1.082c0.691-0.263,1.436-0.396,2.206-0.396
			c1.042,0,2.021,0.25,2.917,0.73c0.773,0.43,1.447,0.991,1.996,1.674c0.211-0.047,0.431-0.099,0.637-0.135
			c0.333-0.072,0.682-0.105,1.031-0.105c0.844,0,1.646,0.168,2.4,0.494c0.741,0.324,1.403,0.77,1.961,1.328
			c0.557,0.567,1,1.223,1.319,1.963c0.304,0.717,0.468,1.481,0.479,2.285c0.658,0.44,1.174,1.021,1.555,1.719
			c0.426,0.771,0.637,1.635,0.637,2.551c0,0.672-0.121,1.316-0.361,1.914c-0.244,0.602-0.574,1.137-0.985,1.605
			c-0.416,0.469-0.918,0.854-1.5,1.147c-0.578,0.293-1.203,0.484-1.865,0.553L28.261,178z"/>
	</g>
	<g>
		<path fill="#03A9F4" d="M28.261,214H8.572c-0.767,0-1.496-0.156-2.17-0.449c-0.666-0.291-1.263-0.693-1.765-1.209
			c-0.504-0.511-0.903-1.115-1.194-1.795c-0.294-0.691-0.441-1.431-0.441-2.199c0-0.762,0.147-1.494,0.441-2.183
			c0.292-0.676,0.698-1.271,1.208-1.774c0.505-0.512,1.105-0.918,1.781-1.215c0.623-0.269,1.287-0.42,1.984-0.455
			c0.471-0.496,1.016-0.898,1.624-1.191c0.579-0.281,1.205-0.438,1.856-0.477c0.154-0.588,0.388-1.154,0.699-1.668
			c0.377-0.633,0.848-1.187,1.395-1.642c0.553-0.461,1.182-0.821,1.871-1.082c0.691-0.262,1.436-0.396,2.206-0.396
			c1.042,0,2.021,0.25,2.917,0.729c0.773,0.431,1.447,0.992,1.996,1.683c0.211-0.056,0.431-0.105,0.637-0.144
			c0.333-0.071,0.682-0.104,1.031-0.104c0.844,0,1.646,0.168,2.4,0.494c0.741,0.323,1.403,0.77,1.961,1.336
			c0.557,0.561,1,1.215,1.319,1.963c0.304,0.709,0.468,1.475,0.479,2.285c0.658,0.44,1.174,1.014,1.555,1.711
			c0.426,0.778,0.637,1.635,0.637,2.551c0,0.672-0.121,1.316-0.361,1.922c-0.244,0.594-0.574,1.129-0.985,1.598
			c-0.416,0.47-0.918,0.861-1.5,1.156c-0.578,0.293-1.203,0.478-1.865,0.545L28.261,214z"/>
	</g>
	<g>
		<path fill="#03A9F4" d="M28.261,250H8.572c-0.767,0-1.496-0.148-2.17-0.441c-0.666-0.293-1.263-0.701-1.765-1.217
			c-0.504-0.511-0.903-1.115-1.194-1.795c-0.294-0.691-0.441-1.431-0.441-2.199c0-0.762,0.147-1.494,0.441-2.174
			c0.292-0.677,0.698-1.279,1.208-1.783c0.505-0.51,1.105-0.91,1.781-1.213c0.623-0.271,1.287-0.422,1.984-0.457
			c0.471-0.496,1.016-0.898,1.624-1.191c0.579-0.274,1.205-0.438,1.856-0.477c0.154-0.588,0.388-1.146,0.699-1.668
			c0.377-0.633,0.848-1.179,1.395-1.642c0.553-0.461,1.182-0.821,1.871-1.082c0.691-0.262,1.436-0.389,2.206-0.389
			c1.042,0,2.021,0.242,2.917,0.73c0.773,0.422,1.447,0.983,1.996,1.674c0.211-0.056,0.431-0.105,0.637-0.144
			c0.333-0.063,0.682-0.104,1.031-0.104c0.844,0,1.646,0.166,2.4,0.492c0.741,0.323,1.403,0.776,1.961,1.336
			c0.557,0.561,1,1.215,1.319,1.963c0.304,0.709,0.468,1.475,0.479,2.285c0.658,0.44,1.174,1.021,1.555,1.711
			c0.426,0.778,0.637,1.635,0.637,2.551c0,0.672-0.121,1.316-0.361,1.922c-0.244,0.594-0.574,1.137-0.985,1.605
			c-0.416,0.469-0.918,0.854-1.5,1.147c-0.578,0.293-1.203,0.478-1.865,0.553L28.261,250z"/>
	</g>
	<g>
		<path fill="#03A9F4" d="M28.261,286H8.572c-0.767,0-1.496-0.148-2.17-0.441c-0.666-0.293-1.263-0.701-1.765-1.217
			c-0.504-0.511-0.903-1.115-1.194-1.795c-0.294-0.685-0.441-1.431-0.441-2.199c0-0.762,0.147-1.494,0.441-2.174
			c0.292-0.677,0.698-1.279,1.208-1.783c0.505-0.504,1.105-0.91,1.781-1.207c0.623-0.275,1.287-0.428,1.984-0.463
			c0.471-0.496,1.016-0.898,1.624-1.191c0.579-0.274,1.205-0.438,1.856-0.477c0.154-0.588,0.388-1.146,0.699-1.668
			c0.377-0.625,0.848-1.179,1.395-1.642c0.553-0.461,1.182-0.821,1.871-1.082c0.691-0.262,1.436-0.389,2.206-0.389
			c1.042,0,2.021,0.242,2.917,0.73c0.773,0.422,1.447,0.991,1.996,1.674c0.211-0.056,0.431-0.105,0.637-0.144
			c0.333-0.063,0.682-0.098,1.031-0.098c0.844,0,1.646,0.16,2.4,0.486c0.741,0.332,1.403,0.776,1.961,1.336
			c0.557,0.561,1,1.223,1.319,1.963c0.304,0.709,0.468,1.475,0.479,2.285c0.658,0.44,1.174,1.021,1.555,1.711
			c0.426,0.778,0.637,1.635,0.637,2.559c0,0.664-0.121,1.309-0.361,1.914c-0.244,0.594-0.574,1.137-0.985,1.605
			c-0.416,0.469-0.918,0.854-1.5,1.147c-0.578,0.293-1.203,0.478-1.865,0.553L28.261,286z"/>
	</g>
	<g>
		<path fill="#03A9F4" d="M28.261,322H8.572c-0.767,0-1.496-0.148-2.17-0.441c-0.666-0.293-1.263-0.701-1.765-1.209
			c-0.504-0.519-0.903-1.115-1.194-1.803c-0.294-0.685-0.441-1.423-0.441-2.199c0-0.762,0.147-1.494,0.441-2.174
			c0.292-0.677,0.698-1.279,1.208-1.783c0.505-0.504,1.105-0.91,1.781-1.207c0.623-0.269,1.287-0.428,1.984-0.463
			c0.471-0.496,1.016-0.892,1.624-1.185c0.579-0.282,1.205-0.438,1.856-0.483c0.154-0.588,0.388-1.146,0.699-1.668
			c0.377-0.625,0.848-1.179,1.395-1.642c0.553-0.453,1.182-0.821,1.871-1.082c0.691-0.262,1.436-0.389,2.206-0.389
			c1.042,0,2.021,0.242,2.917,0.73c0.773,0.422,1.447,0.991,1.996,1.674c0.211-0.056,0.431-0.099,0.637-0.144
			c0.333-0.063,0.682-0.098,1.031-0.098c0.844,0,1.646,0.16,2.4,0.494c0.741,0.324,1.403,0.77,1.961,1.328
			c0.557,0.561,1,1.223,1.319,1.963c0.304,0.709,0.468,1.481,0.479,2.285c0.658,0.44,1.174,1.021,1.555,1.719
			c0.426,0.771,0.637,1.627,0.637,2.551c0,0.672-0.121,1.316-0.361,1.914c-0.244,0.602-0.574,1.137-0.985,1.605
			c-0.416,0.469-0.918,0.854-1.5,1.147c-0.578,0.293-1.203,0.484-1.865,0.553L28.261,322z"/>
	</g>
	<g>
		<path fill="#03A9F4" d="M28.261,358H8.572c-0.767,0-1.496-0.148-2.17-0.441c-0.666-0.293-1.263-0.701-1.765-1.209
			c-0.504-0.519-0.903-1.115-1.194-1.803c-0.294-0.685-0.441-1.423-0.441-2.199c0-0.762,0.147-1.494,0.441-2.174
			c0.292-0.677,0.698-1.271,1.208-1.783c0.505-0.504,1.105-0.91,1.781-1.207c0.623-0.269,1.287-0.42,1.984-0.463
			c0.471-0.496,1.016-0.892,1.624-1.185c0.579-0.282,1.205-0.438,1.856-0.483c0.154-0.588,0.388-1.146,0.699-1.668
			c0.377-0.625,0.848-1.179,1.395-1.642c0.553-0.453,1.182-0.821,1.871-1.073c0.691-0.263,1.436-0.396,2.206-0.396
			c1.042,0,2.021,0.25,2.917,0.73c0.773,0.43,1.447,0.991,1.996,1.674c0.211-0.056,0.431-0.099,0.637-0.144
			c0.333-0.063,0.682-0.098,1.031-0.098c0.844,0,1.646,0.168,2.4,0.494c0.741,0.324,1.403,0.77,1.961,1.328
			c0.557,0.561,1,1.223,1.319,1.963c0.304,0.717,0.468,1.481,0.479,2.285c0.658,0.44,1.174,1.021,1.555,1.719
			c0.426,0.771,0.637,1.635,0.637,2.551c0,0.672-0.121,1.316-0.361,1.914c-0.244,0.603-0.574,1.137-0.985,1.605
			c-0.416,0.469-0.918,0.854-1.5,1.147c-0.578,0.293-1.203,0.484-1.865,0.553L28.261,358z"/>
	</g>
	<g>
		<path fill="#03A9F4" d="M28.261,393.856H8.572c-0.767,0-1.496-0.148-2.17-0.441c-0.666-0.293-1.263-0.7-1.765-1.209
			c-0.504-0.516-0.903-1.114-1.194-1.795c-0.294-0.69-0.441-1.43-0.441-2.198c0-0.763,0.147-1.502,0.441-2.183
			c0.292-0.676,0.698-1.271,1.208-1.783c0.505-0.504,1.105-0.909,1.781-1.206c0.623-0.269,1.287-0.421,1.984-0.455
			c0.471-0.505,1.016-0.898,1.624-1.191c0.579-0.283,1.205-0.438,1.856-0.484c0.154-0.588,0.388-1.146,0.699-1.659
			c0.377-0.634,0.848-1.187,1.395-1.642c0.553-0.461,1.182-0.821,1.871-1.082c0.691-0.262,1.436-0.396,2.206-0.396
			c1.042,0,2.021,0.25,2.917,0.729c0.773,0.431,1.447,0.992,1.996,1.675c0.211-0.048,0.431-0.099,0.637-0.136
			c0.333-0.071,0.682-0.104,1.031-0.104c0.844,0,1.646,0.168,2.4,0.494c0.741,0.323,1.403,0.77,1.961,1.336
			c0.557,0.561,1,1.215,1.319,1.955c0.304,0.717,0.468,1.481,0.479,2.284c0.658,0.449,1.174,1.021,1.555,1.72
			c0.426,0.771,0.637,1.635,0.637,2.551c0,0.672-0.121,1.316-0.361,1.922c-0.244,0.594-0.574,1.129-0.985,1.598
			c-0.416,0.47-0.918,0.861-1.5,1.156c-0.578,0.293-1.203,0.478-1.865,0.545H28.261z"/>
	</g>
	<polygon fill="#FFC107" points="12.548,46.403 18.001,53.637 23.454,46.403 20.021,46.403 20.021,39.868 15.982,39.868 
		15.982,46.403 	"/>
	<polygon fill="#FFC107" points="12.548,83.765 18.001,91 23.454,83.765 20.021,83.765 20.021,77.23 15.982,77.23 15.982,83.765 	
		"/>
	<polygon fill="#FFC107" points="12.548,121.133 18.001,128.367 23.454,121.133 20.021,121.133 20.021,114.598 15.982,114.598 
		15.982,121.133 	"/>
	<polygon fill="#FFC107" points="12.548,158.5 18.001,165.727 23.454,158.5 20.021,158.5 20.021,151.957 15.982,151.957 
		15.982,158.5 	"/>
	<polygon fill="#FFC107" points="12.548,195.852 18.001,203.086 23.454,195.852 20.021,195.852 20.021,189.317 15.982,189.317 
		15.982,195.852 	"/>
	<polygon fill="#FFC107" points="12.548,233.219 18.001,240.452 23.454,233.219 20.021,233.219 20.021,226.684 15.982,226.684 
		15.982,233.219 	"/>
	<polygon fill="#FFC107" points="12.548,270.586 18.001,277.821 23.454,270.586 20.021,270.586 20.021,264.051 15.982,264.051 
		15.982,270.586 	"/>
	<polygon fill="#FFC107" points="12.548,307.946 18.001,315.18 23.454,307.946 20.021,307.946 20.021,301.409 15.982,301.409 
		15.982,307.946 	"/>
	<polygon fill="#FFC107" points="12.548,345.313 18.001,352.547 23.454,345.313 20.021,345.313 20.021,338.778 15.982,338.778 
		15.982,345.313 	"/>
	<polygon fill="#FFC107" points="12.548,382.534 18.001,389.77 23.454,382.534 20.021,382.534 20.021,376 15.982,376 
		15.982,382.534 	"/>
	<g>
		<path fill="#03A9F4" d="M28.261,34H8.572c-0.767,0-1.496-0.151-2.17-0.444c-0.666-0.292-1.263-0.696-1.765-1.209
			c-0.504-0.512-0.903-1.119-1.194-1.799c-0.294-0.688-0.441-1.426-0.441-2.198c0-0.762,0.147-1.494,0.441-2.177
			c0.292-0.676,0.698-1.276,1.204-1.782c0.509-0.505,1.109-0.913,1.785-1.208c0.623-0.269,1.287-0.425,1.984-0.459
			c0.471-0.498,1.016-0.898,1.62-1.188c0.583-0.282,1.209-0.443,1.86-0.48c0.154-0.589,0.388-1.15,0.699-1.668
			c0.377-0.629,0.848-1.182,1.395-1.639c0.553-0.458,1.182-0.823,1.871-1.083c0.691-0.262,1.436-0.394,2.201-0.394
			c1.047,0,2.025,0.247,2.922,0.731c0.773,0.426,1.447,0.991,1.996,1.677c0.211-0.055,0.431-0.102,0.637-0.144
			c0.333-0.068,0.682-0.101,1.031-0.101c0.844,0,1.646,0.164,2.4,0.493c0.741,0.324,1.403,0.771,1.961,1.333
			c0.557,0.559,1,1.219,1.319,1.962c0.304,0.708,0.468,1.479,0.479,2.285c0.658,0.442,1.174,1.017,1.555,1.715
			c0.426,0.773,0.637,1.63,0.637,2.551c0,0.671-0.121,1.316-0.361,1.918c-0.244,0.594-0.574,1.134-0.985,1.601
			c-0.416,0.469-0.918,0.858-1.5,1.152c-0.578,0.293-1.203,0.477-1.865,0.549L28.261,34z"/>
	</g>
	<polygon fill="#FFC107" points="12.548,7.949 18.001,15.184 23.454,7.949 20.021,7.949 20.021,1.415 15.982,1.415 15.982,7.949 	
		"/>
</g>
</svg>
